<mxfile host="app.diagrams.net" agent="Mozilla/5.0 (Windows NT 10.0; Win64; x64) AppleWebKit/537.36 (KHTML, like Gecko) Chrome/135.0.0.0 Safari/537.36" version="26.2.13">
  <diagram name="Trang-1" id="TC8ENLdN-GWNtANQhBoE">
    <mxGraphModel dx="1428" dy="777" grid="1" gridSize="10" guides="1" tooltips="1" connect="1" arrows="1" fold="1" page="1" pageScale="1" pageWidth="827" pageHeight="1169" math="0" shadow="0">
      <root>
        <mxCell id="0" />
        <mxCell id="1" parent="0" />
        <mxCell id="RxWgTGdh_guqD1X2mz72-3" style="edgeStyle=orthogonalEdgeStyle;rounded=0;orthogonalLoop=1;jettySize=auto;html=1;entryX=0.5;entryY=0;entryDx=0;entryDy=0;" edge="1" parent="1">
          <mxGeometry relative="1" as="geometry">
            <mxPoint x="362" y="500" as="sourcePoint" />
            <mxPoint x="362" y="600" as="targetPoint" />
          </mxGeometry>
        </mxCell>
        <mxCell id="RxWgTGdh_guqD1X2mz72-1" value="Client" style="rounded=0;whiteSpace=wrap;html=1;" vertex="1" parent="1">
          <mxGeometry x="320" y="440" width="120" height="60" as="geometry" />
        </mxCell>
        <mxCell id="RxWgTGdh_guqD1X2mz72-7" style="edgeStyle=orthogonalEdgeStyle;rounded=0;orthogonalLoop=1;jettySize=auto;html=1;" edge="1" parent="1" source="RxWgTGdh_guqD1X2mz72-2" target="RxWgTGdh_guqD1X2mz72-6">
          <mxGeometry relative="1" as="geometry" />
        </mxCell>
        <mxCell id="RxWgTGdh_guqD1X2mz72-8" value="jwt-blacklist:jti" style="edgeLabel;html=1;align=center;verticalAlign=middle;resizable=0;points=[];" vertex="1" connectable="0" parent="RxWgTGdh_guqD1X2mz72-7">
          <mxGeometry x="-0.2444" y="3" relative="1" as="geometry">
            <mxPoint y="-10" as="offset" />
          </mxGeometry>
        </mxCell>
        <mxCell id="RxWgTGdh_guqD1X2mz72-11" style="edgeStyle=orthogonalEdgeStyle;rounded=0;orthogonalLoop=1;jettySize=auto;html=1;entryX=0.5;entryY=0;entryDx=0;entryDy=0;" edge="1" parent="1">
          <mxGeometry relative="1" as="geometry">
            <mxPoint x="366" y="660" as="sourcePoint" />
            <mxPoint x="366" y="760" as="targetPoint" />
          </mxGeometry>
        </mxCell>
        <mxCell id="RxWgTGdh_guqD1X2mz72-13" style="edgeStyle=orthogonalEdgeStyle;rounded=0;orthogonalLoop=1;jettySize=auto;html=1;entryX=0.5;entryY=0;entryDx=0;entryDy=0;" edge="1" parent="1" source="RxWgTGdh_guqD1X2mz72-2" target="RxWgTGdh_guqD1X2mz72-12">
          <mxGeometry relative="1" as="geometry" />
        </mxCell>
        <mxCell id="RxWgTGdh_guqD1X2mz72-14" value="jwt token" style="edgeLabel;html=1;align=center;verticalAlign=middle;resizable=0;points=[];" vertex="1" connectable="0" parent="RxWgTGdh_guqD1X2mz72-13">
          <mxGeometry x="-0.2759" y="-2" relative="1" as="geometry">
            <mxPoint as="offset" />
          </mxGeometry>
        </mxCell>
        <mxCell id="RxWgTGdh_guqD1X2mz72-19" style="edgeStyle=orthogonalEdgeStyle;rounded=0;orthogonalLoop=1;jettySize=auto;html=1;entryX=0.5;entryY=1;entryDx=0;entryDy=0;" edge="1" parent="1" source="RxWgTGdh_guqD1X2mz72-2" target="RxWgTGdh_guqD1X2mz72-1">
          <mxGeometry relative="1" as="geometry" />
        </mxCell>
        <mxCell id="RxWgTGdh_guqD1X2mz72-21" value="jwt token" style="edgeLabel;html=1;align=center;verticalAlign=middle;resizable=0;points=[];" vertex="1" connectable="0" parent="RxWgTGdh_guqD1X2mz72-19">
          <mxGeometry x="-0.08" y="-3" relative="1" as="geometry">
            <mxPoint x="24" y="-15" as="offset" />
          </mxGeometry>
        </mxCell>
        <mxCell id="RxWgTGdh_guqD1X2mz72-2" value="ApiGateway" style="rounded=0;whiteSpace=wrap;html=1;" vertex="1" parent="1">
          <mxGeometry x="320" y="600" width="120" height="60" as="geometry" />
        </mxCell>
        <mxCell id="RxWgTGdh_guqD1X2mz72-16" style="edgeStyle=orthogonalEdgeStyle;rounded=0;orthogonalLoop=1;jettySize=auto;html=1;entryX=0.5;entryY=1;entryDx=0;entryDy=0;" edge="1" parent="1" source="RxWgTGdh_guqD1X2mz72-5" target="RxWgTGdh_guqD1X2mz72-2">
          <mxGeometry relative="1" as="geometry" />
        </mxCell>
        <mxCell id="RxWgTGdh_guqD1X2mz72-18" value="jwt token" style="edgeLabel;html=1;align=center;verticalAlign=middle;resizable=0;points=[];" vertex="1" connectable="0" parent="RxWgTGdh_guqD1X2mz72-16">
          <mxGeometry x="0.2" y="-1" relative="1" as="geometry">
            <mxPoint x="26" y="2" as="offset" />
          </mxGeometry>
        </mxCell>
        <mxCell id="RxWgTGdh_guqD1X2mz72-5" value="AuthService" style="rounded=0;whiteSpace=wrap;html=1;" vertex="1" parent="1">
          <mxGeometry x="320" y="760" width="120" height="60" as="geometry" />
        </mxCell>
        <mxCell id="RxWgTGdh_guqD1X2mz72-6" value="Redis" style="shape=cylinder3;whiteSpace=wrap;html=1;boundedLbl=1;backgroundOutline=1;size=15;" vertex="1" parent="1">
          <mxGeometry x="640" y="670" width="60" height="80" as="geometry" />
        </mxCell>
        <mxCell id="RxWgTGdh_guqD1X2mz72-9" style="edgeStyle=orthogonalEdgeStyle;rounded=0;orthogonalLoop=1;jettySize=auto;html=1;entryX=0.5;entryY=1;entryDx=0;entryDy=0;entryPerimeter=0;" edge="1" parent="1" source="RxWgTGdh_guqD1X2mz72-5" target="RxWgTGdh_guqD1X2mz72-6">
          <mxGeometry relative="1" as="geometry" />
        </mxCell>
        <mxCell id="RxWgTGdh_guqD1X2mz72-10" value="jwt-blacklist:jti" style="edgeLabel;html=1;align=center;verticalAlign=middle;resizable=0;points=[];" vertex="1" connectable="0" parent="RxWgTGdh_guqD1X2mz72-9">
          <mxGeometry x="-0.2444" y="1" relative="1" as="geometry">
            <mxPoint y="-10" as="offset" />
          </mxGeometry>
        </mxCell>
        <mxCell id="RxWgTGdh_guqD1X2mz72-12" value="OtherService" style="rounded=0;whiteSpace=wrap;html=1;" vertex="1" parent="1">
          <mxGeometry x="100" y="760" width="120" height="60" as="geometry" />
        </mxCell>
        <mxCell id="RxWgTGdh_guqD1X2mz72-17" value="login" style="text;html=1;align=center;verticalAlign=middle;resizable=0;points=[];autosize=1;strokeColor=none;fillColor=none;" vertex="1" parent="1">
          <mxGeometry x="321" y="688" width="50" height="30" as="geometry" />
        </mxCell>
        <mxCell id="RxWgTGdh_guqD1X2mz72-24" style="edgeStyle=orthogonalEdgeStyle;rounded=0;orthogonalLoop=1;jettySize=auto;html=1;" edge="1" parent="1" source="RxWgTGdh_guqD1X2mz72-22">
          <mxGeometry relative="1" as="geometry">
            <mxPoint x="360" y="540" as="targetPoint" />
          </mxGeometry>
        </mxCell>
        <mxCell id="RxWgTGdh_guqD1X2mz72-22" value="login" style="rhombus;whiteSpace=wrap;html=1;" vertex="1" parent="1">
          <mxGeometry x="110" y="500" width="80" height="80" as="geometry" />
        </mxCell>
        <mxCell id="RxWgTGdh_guqD1X2mz72-25" value="Oracle" style="shape=cylinder3;whiteSpace=wrap;html=1;boundedLbl=1;backgroundOutline=1;size=15;" vertex="1" parent="1">
          <mxGeometry x="640" y="860" width="60" height="80" as="geometry" />
        </mxCell>
        <mxCell id="RxWgTGdh_guqD1X2mz72-30" style="edgeStyle=orthogonalEdgeStyle;rounded=0;orthogonalLoop=1;jettySize=auto;html=1;entryX=0;entryY=0;entryDx=0;entryDy=52.5;entryPerimeter=0;" edge="1" parent="1" source="RxWgTGdh_guqD1X2mz72-5" target="RxWgTGdh_guqD1X2mz72-25">
          <mxGeometry relative="1" as="geometry">
            <Array as="points">
              <mxPoint x="390" y="913" />
            </Array>
          </mxGeometry>
        </mxCell>
      </root>
    </mxGraphModel>
  </diagram>
</mxfile>
